<?xml version="1.0" encoding="UTF-8"?>
<svg xmlns="http://www.w3.org/2000/svg" viewBox="0 0 600 400" role="img" aria-labelledby="title desc">
  <title id="title">Cartoon Humpback Whale with Spout</title>
  <desc id="desc">Outlined friendly cartoon humpback whale with highlight belly, long pectoral fin, blushing cheek and a three-part spout.</desc>
  <style>
    .outline { stroke:#27303a; stroke-width:2.5; stroke-linecap:round; stroke-linejoin:round; }
    .base { fill:#4acfff; }
    .highlight { fill:#80ddff; }
    .spout path { fill:#4acfff; stroke:#27303a; stroke-width:2; stroke-linecap:round; stroke-linejoin:round; }
  </style>
  <g class="whale" transform="translate(0 -10)">
    <!-- Body -->
    <path class="outline base" d="M520 215c-4-9-16-6-25 1-20 15-31 14-40 9-7-4-9-9-14-16-11-18-31-29-57-30-19-1-30 3-47 12-14 8-28 10-53 7-31-3-52-3-71 2-29 8-52 29-57 54-10 46 29 94 103 106 61 10 118 0 151-26 28-22 35-47 25-75-3-8-3-8 5-9 39-4 69-33 80-60z" />
    <!-- Belly highlight -->
    <path class="outline highlight" d="M196 278c8 30 45 56 99 64 56 9 109-4 134-30 11-11 13-22 10-35-2-6-2-6-9-4-53 16-120 17-167 3-24-7-49-11-67-12z" />
    <!-- Mouth line -->
    <path class="outline" fill="none" d="M237 255c9 5 27 10 48 12 44 6 86 2 126-11" opacity=".7" />
    <!-- Eye -->
    <circle cx="365" cy="236" r="7" fill="#fff" stroke="#27303a" stroke-width="2" />
    <circle cx="367" cy="236" r="3" fill="#27303a" />
    <!-- Blush -->
    <circle cx="350" cy="250" r="5" fill="#ffaa54" opacity=".55" />
    <!-- Pectoral fin -->
    <path class="outline base" d="M245 270c-18-6-30-6-45-4-7 1-10 7-7 14 7 16 27 29 49 33 20 4 34 9 46 18 4 3 9-1 10-7 1-7-2-19-8-31-6-12-16-21-45-23z" />
    <path class="outline highlight" d="M241 284c-12-4-22-5-31-4 9 11 24 19 40 22 11 2 19 6 27 12-2-12-14-24-36-30z" opacity=".85" />
    <!-- Spout -->
    <g class="spout" transform="translate(0 10)">
      <path d="M314 165c2-10-5-21-15-23-7-2-13 2-17 8 4-2 8-2 12 0 6 3 9 9 8 15 0 0 8-1 12 0z" />
      <path d="M332 158c1-8-3-16-10-20-6-3-12-2-18 2 6 0 10 2 13 6 5 5 6 11 4 16 0 0 7-1 11-4z" />
      <path d="M300 170c1-6-2-13-7-16-4-3-9-3-14-1 4 1 7 3 9 6 3 4 4 8 3 12l9-1z" />
    </g>
  </g>
</svg>
